# xmcd
#
# Track frame offsets:
#	150
#	22531
#	42954
#	75246
#	96329
#	117140
#
# Disc length: 1893 seconds
#
# Revision: 3
# Processed by: cddbd v1.5.2PL0 Copyright (c) Steve Scherf et al.
# Submitted via: EasyCDDAExtractor 15.2.5.1
#
DISCID=33076306
DTITLE=Gérard Manset - Un oiseau s'est posé
DYEAR=2014
DGENRE=Chanson Française
TTITLE0=Le pont
TTITLE1=Manteau rouge
TTITLE2=La ballade des échinodermes
TTITLE3=Rouge-gorge
TTITLE4=Animal on est mal
TTITLE5=Le train du soir
EXTD=YEAR: 2014
EXTT0=
EXTT1=
EXTT2=
EXTT3=
EXTT4=
EXTT5=
PLAYORDER=
